<svg width="16" height="16" viewBox="0 0 16 16" fill="none" xmlns="http://www.w3.org/2000/svg">
<g clip-path="url(#clip0_3639_8498)">
<path d="M8.00002 4.00008C10.5267 4.00008 12.78 5.42008 13.88 7.66675C12.78 9.91341 10.5267 11.3334 8.00002 11.3334C5.47335 11.3334 3.22002 9.91341 2.12002 7.66675C3.22002 5.42008 5.47335 4.00008 8.00002 4.00008ZM8.00002 2.66675C4.66669 2.66675 1.82002 4.74008 0.666687 7.66675C1.82002 10.5934 4.66669 12.6667 8.00002 12.6667C11.3334 12.6667 14.18 10.5934 15.3334 7.66675C14.18 4.74008 11.3334 2.66675 8.00002 2.66675ZM8.00002 6.00008C8.92002 6.00008 9.66669 6.74675 9.66669 7.66675C9.66669 8.58675 8.92002 9.33342 8.00002 9.33342C7.08002 9.33342 6.33335 8.58675 6.33335 7.66675C6.33335 6.74675 7.08002 6.00008 8.00002 6.00008ZM8.00002 4.66675C6.34669 4.66675 5.00002 6.01341 5.00002 7.66675C5.00002 9.32008 6.34669 10.6667 8.00002 10.6667C9.65335 10.6667 11 9.32008 11 7.66675C11 6.01341 9.65335 4.66675 8.00002 4.66675Z" fill="#222222"/>
</g>
<defs>
<clipPath id="clip0_3639_8498">
<rect width="16" height="16" fill="white"/>
</clipPath>
</defs>
</svg>
