<svg width="72" height="32" viewBox="0 0 72 32" fill="none" xmlns="http://www.w3.org/2000/svg">
<path d="M67.3939 6.12887C67.5766 6.28515 67.9196 6.38207 68.4193 6.42205C68.6851 6.44264 68.9237 6.41236 69.1314 6.33603C69.3403 6.25486 69.5136 6.15189 69.6536 6.02105C69.7948 5.88658 69.9088 5.74241 69.993 5.58007C70.0749 5.41894 70.1295 5.26993 70.1485 5.13425C70.1829 4.89074 70.1165 4.67631 69.9539 4.49943C69.7901 4.32256 69.4744 4.21716 69.0068 4.18081C68.7243 4.15901 68.4739 4.18687 68.2531 4.26683C68.0324 4.34315 67.8413 4.44855 67.6846 4.58181C67.5268 4.71508 67.3998 4.86893 67.3084 5.04217C67.2134 5.2142 67.1565 5.38139 67.1316 5.54736C67.1244 5.77875 67.2087 5.97501 67.3939 6.13129" fill="#222222"/>
<path d="M13.3842 12.3147C13.186 12.0312 12.9391 11.7429 12.6412 11.4594C12.3386 11.171 12.0003 10.8791 11.617 10.5811L8.62851 8.22473C8.34841 8.00666 8.10155 7.80677 7.8891 7.6202C7.67666 7.43485 7.49982 7.25312 7.35621 7.08109C7.21142 6.90906 7.10223 6.73703 7.02983 6.565C6.96218 6.38813 6.93132 6.20277 6.94319 6.00288C6.95862 5.71576 7.07137 5.42258 7.28025 5.12456C7.48795 4.83138 7.7538 4.55274 8.08731 4.28864C8.41725 4.02817 8.79467 3.78103 9.22193 3.55448C9.64919 3.32672 10.0883 3.13046 10.5346 2.96812C10.9856 2.80578 11.4342 2.67495 11.8757 2.58287C12.3231 2.48474 12.7314 2.43871 13.1041 2.43871C13.2999 2.43871 13.4661 2.47142 13.6002 2.53199C13.7331 2.5962 13.7984 2.73188 13.7865 2.94147C13.7735 3.15954 13.6607 3.38245 13.4471 3.61505C13.2335 3.84766 12.9913 4.03301 12.7291 4.1687C12.3908 4.34921 12.1368 4.56728 11.9766 4.82411C11.8176 5.07488 11.7285 5.33051 11.7143 5.58613C11.6977 5.88415 11.7689 6.14462 11.9339 6.36632C12.0988 6.59044 12.3338 6.7019 12.6377 6.7019C12.9415 6.7019 13.2548 6.57591 13.6156 6.33361C14.4298 5.79935 15.0446 5.22268 15.4624 4.60483C15.8801 3.98698 16.108 3.33641 16.1472 2.65798C16.1745 2.18308 16.1199 1.77966 15.9834 1.44529C15.8481 1.11093 15.6451 0.83592 15.384 0.6227C15.1182 0.408268 14.8048 0.250776 14.4405 0.153858C14.0773 0.0520936 13.6797 0 13.2418 0C12.6638 0 12.049 0.0835921 11.3939 0.242296C10.7435 0.399788 10.0883 0.619066 9.44031 0.902552C8.78636 1.18119 8.15733 1.52041 7.55204 1.91535C6.94794 2.31029 6.40792 2.73915 5.94031 3.20315C5.46794 3.66715 5.08934 4.16022 4.795 4.68479C4.50067 5.2142 4.34282 5.75331 4.31196 6.30696C4.27754 6.90664 4.40928 7.48331 4.70599 8.03574C5.00151 8.58939 5.47032 9.16484 6.10053 9.76452C6.21803 9.87113 6.53017 10.1364 7.03458 10.5544C7.54373 10.9724 8.2867 11.52 9.27296 12.1996C9.82959 12.58 10.226 12.9531 10.4752 13.3057C10.7233 13.6594 10.8372 13.9986 10.8182 14.3233C10.7933 14.7607 10.6473 15.1653 10.3803 15.536C10.118 15.9079 9.76669 16.2326 9.33824 16.5016C8.91216 16.7766 8.41844 16.9849 7.85943 17.1339C7.2945 17.2878 6.71294 17.3617 6.09816 17.3617C5.48337 17.3617 4.99439 17.3254 4.57544 17.2466C4.16004 17.1679 3.82061 17.0649 3.5595 16.9353C3.30314 16.8008 3.11562 16.6469 2.99812 16.4749C2.88537 16.3017 2.83197 16.1211 2.84265 15.9309C2.85926 15.6341 3.02186 15.3325 3.32213 15.0248C3.62715 14.7231 4.03305 14.4626 4.54221 14.2446C4.76177 14.1513 4.93861 14.0677 5.0751 13.9938C5.21633 13.915 5.32671 13.8363 5.41216 13.7479C5.49524 13.6594 5.55458 13.5661 5.58782 13.4692C5.62105 13.3675 5.63648 13.2512 5.64478 13.1167C5.66021 12.8417 5.61393 12.6006 5.5083 12.3874C5.40267 12.1729 5.21752 12.0663 4.9576 12.0663C4.25618 12.2384 3.6046 12.4891 3.00762 12.8138C2.41538 13.1433 1.89792 13.5153 1.45997 13.9284C1.02203 14.3475 0.677845 14.7934 0.423861 15.2574C0.168689 15.7274 0.0298289 16.1866 0.00371833 16.6421C-0.0200185 17.0734 0.0701815 17.4913 0.266011 17.8875C0.466587 18.2824 0.802464 18.6313 1.27601 18.933C1.746 19.2407 2.35723 19.4769 3.10613 19.6526C3.85621 19.8343 4.77483 19.9228 5.85842 19.9228C7.0239 19.9228 8.09443 19.7507 9.07001 19.4164C10.0444 19.0808 10.8894 18.6398 11.5992 18.0959C12.3137 17.5519 12.8715 16.9304 13.2797 16.2375C13.688 15.5445 13.9111 14.8333 13.9515 14.1089C13.9705 13.7794 13.9325 13.4729 13.8316 13.1797C13.7331 12.8913 13.5871 12.603 13.3889 12.3159" fill="#222222"/>
<path d="M71.816 14.4093C71.6926 14.2264 71.5312 14.1416 71.3354 14.1416C71.1122 14.1416 70.8939 14.2446 70.6755 14.4554C69.9598 15.3628 68.4763 16.4422 67.3891 16.8735C67.0544 17.0104 66.7352 17.0734 66.4278 17.0734C66.1536 17.0734 65.9471 17.0285 65.7952 16.9365C65.6504 16.8396 65.3074 16.5839 65.3074 16.2871C65.3074 16.0073 65.3572 15.6983 65.4641 15.3616C65.5649 15.0296 65.6943 14.688 65.8391 14.3451C66.4859 12.9253 67.3927 11.0269 68.0526 9.64458C68.5463 8.63663 68.0573 7.80556 66.9642 7.80556C66.7126 7.80556 66.4669 7.86855 66.226 8.00545C65.9851 8.13629 65.7726 8.3592 65.5827 8.67297C65.3857 9.08367 65.2029 9.4774 65.0285 9.84205C64.4339 11.0341 63.6316 12.6805 63.0797 13.9514C62.027 15.0441 59.5927 17.1061 57.7211 17.1061C57.5597 17.1061 57.4422 17.0661 57.3686 16.9752C57.3021 16.8832 57.263 16.7632 57.263 16.6045C57.263 16.0376 57.638 15.2998 57.8825 14.7885C58.2018 14.144 58.5436 13.4038 58.9067 12.6442C59.4408 11.5914 61.4466 7.23132 61.8549 6.42568L64.2618 6.39176C64.5478 6.38813 64.7828 6.32876 64.962 6.26092C65.14 6.19187 65.2848 6.1107 65.3869 6.00893C65.4925 5.90475 65.5602 5.79693 65.5994 5.67214C65.6373 5.55221 65.6551 5.42621 65.6551 5.30628C65.6551 5.06156 65.6172 4.86651 65.527 4.71871C65.4391 4.57575 65.3145 4.45945 65.1578 4.37707C65.0024 4.29469 64.8113 4.24018 64.5929 4.2111C64.3757 4.18324 64.1348 4.17233 63.8713 4.17233H62.9325C63.4607 3.06746 63.812 2.33088 64.1467 1.63307C64.5371 0.814114 64.5193 0 63.12 0C62.7675 0 62.4329 0.0920724 62.1136 0.275006C61.7896 0.462785 61.6531 0.742636 61.4359 1.16423L59.9986 4.17354H58.127C57.8754 4.17354 57.6511 4.21837 57.4552 4.32134C57.2594 4.42432 57.0921 4.54426 56.952 4.68115C56.8179 4.81805 56.7111 4.97191 56.6446 5.13182C56.571 5.29174 56.5378 5.42864 56.5378 5.54251C56.5378 5.79935 56.6494 6.02832 56.8784 6.22821C57.1087 6.42811 57.581 6.42811 58.1958 6.42811H58.8996C58.5922 7.05081 56.3883 11.7598 56.0643 12.4455C55.8293 12.9459 55.5919 13.4486 55.351 13.955C55.1729 14.3282 50.4659 17.1085 48.0899 17.1085C47.9273 17.1085 47.8098 17.0685 47.7386 16.9777C47.6709 16.8856 47.6329 16.7657 47.6329 16.607C47.6329 16.3428 47.6994 16.0303 47.8228 15.6814C47.951 15.3276 48.0804 15.0199 48.2085 14.7522C48.5278 14.1065 48.8625 13.399 49.2269 12.6406C49.7597 11.5878 51.8177 7.23495 52.2248 6.42932L54.6341 6.3954C54.9201 6.39176 55.1539 6.3324 55.332 6.26456C55.5124 6.1955 55.656 6.11433 55.758 6.01257C55.8637 5.90838 55.9301 5.80056 55.9705 5.67578C56.0097 5.55584 56.0275 5.42985 56.0275 5.30991C56.0275 5.06519 55.9895 4.87014 55.8981 4.72234C55.8103 4.57939 55.6868 4.46309 55.529 4.38071C55.3735 4.29833 55.1824 4.24381 54.9641 4.21473C54.7457 4.18687 54.5059 4.17597 54.2425 4.17597H53.3037C53.8306 3.0711 54.1819 2.33452 54.5166 1.63671C54.9083 0.817748 54.8893 0.00363444 53.4912 0.00363444C53.1387 0.00363444 52.8028 0.0957068 52.4847 0.27864C52.1595 0.466419 52.0242 0.746271 51.8059 1.16787L50.3686 4.17718H48.4969C48.2453 4.17718 48.021 4.222 47.8252 4.32498C47.6294 4.42795 47.4608 4.54789 47.322 4.68479C47.1879 4.82168 47.081 4.97554 47.0134 5.13546C46.941 5.29537 46.9078 5.43227 46.9078 5.54615C46.9078 5.80298 47.0193 6.03195 47.2484 6.23185C47.4774 6.43174 47.951 6.43174 48.5658 6.43174H49.2708C48.9622 7.05444 46.7594 11.7635 46.4342 12.4492C46.1873 12.9749 45.9369 13.5056 45.6841 14.0386C44.8355 15.8219 38.4017 18.8312 37.2694 16.4943C37.2635 16.4822 37.2564 16.4676 37.2516 16.4555C37.4569 16.3816 37.6243 16.321 37.7477 16.275C41.9836 14.6855 45.5987 12.5994 45.0136 9.69304C44.9625 9.24722 44.826 8.92375 44.5044 8.61119C43.3235 7.47482 41.2525 7.62262 39.4247 8.34345C36.8267 9.36958 35.1984 11.4036 34.2109 14.0265C34.1124 14.3221 34.0341 14.6225 33.9783 14.9242C33.0288 15.2356 32.0461 15.5505 31.0682 15.8607C31.645 14.6649 32.2099 13.4922 32.5695 12.7217C33.7291 10.2503 34.9847 7.66503 35.3645 6.87272C36.3069 4.90043 38.1667 2.84576 39.7903 2.68221C41.4554 2.51624 40.5641 4.51882 40.5641 5.42985C40.5641 5.65276 40.6531 5.81752 40.8442 5.92655C41.0281 6.02953 41.2299 6.08647 41.4483 6.08647C41.5373 6.08647 41.6382 6.06951 41.7616 6.04043C41.8779 6.01257 42.0025 5.96653 42.1189 5.89748C42.2423 5.83448 42.3491 5.74968 42.4488 5.64064C42.5437 5.53161 42.6114 5.40077 42.6446 5.2457C42.774 4.66904 42.9508 3.46241 42.9508 2.98266C42.9508 2.50292 42.8832 2.04134 42.755 1.67063C42.6209 1.29386 42.4535 0.984932 42.2399 0.739002C42.0215 0.493072 41.7759 0.31135 41.5017 0.191414C41.2216 0.0654199 40.932 0.00363444 40.6234 0.00363444C39.0224 0.00363444 37.6077 0.615431 36.3615 1.61369C34.4459 3.1341 33.4383 4.75748 32.4164 6.89695C31.0539 9.74635 29.3876 13.1882 27.5776 16.951C26.3148 17.3556 25.0734 17.6888 25.706 15.6038C26.1511 14.1355 27.3332 12.0348 27.9432 10.4272C28.1639 9.8045 28.3182 9.21208 27.7569 8.72749C27.4934 8.49973 27.1528 8.3907 26.7386 8.3907C26.6104 8.3907 26.4549 8.41857 26.2745 8.47914C26.0905 8.53971 25.9232 8.60634 25.7547 8.67782C25.5588 8.76626 25.3689 8.86075 25.1838 8.95404C24.9654 8.7493 24.715 8.56152 24.429 8.3907C24.1773 8.24654 23.8759 8.11933 23.5115 7.99697C23.1531 7.88188 22.7294 7.8201 22.2487 7.8201C21.3206 7.8201 20.4803 7.98001 19.7267 8.30105C17.5156 9.23147 16.1305 11.1335 15.2369 13.2948C14.5675 14.6952 13.8601 16.8953 14.6316 18.2727C15.2072 19.3001 16.3537 20.0051 17.5512 20.0051C20.7094 20.0051 22.4208 18.0971 23.324 16.5318C23.1056 18.0862 23.6516 20.033 25.3844 20.0051C25.5659 20.0027 25.8318 19.964 26.1594 19.8973C24.6082 23.1344 22.9858 26.5435 21.3823 29.9744C21.2601 30.2312 21.1699 30.4602 21.1022 30.6528C21.0358 30.8479 21.0025 31.0187 21.0025 31.1617C21.0025 31.4524 21.1082 31.6632 21.3147 31.8001C21.5224 31.9309 21.7574 32 22.0197 32C22.9739 32 23.7881 31.1253 24.1678 30.2942C25.9446 26.5738 27.6655 23.0254 29.3627 19.4103C29.4244 19.2795 29.4897 19.1389 29.562 18.9863C31.0598 18.5356 32.7167 17.9977 34.1623 17.5156C34.3142 17.9105 34.5326 18.2848 34.8269 18.6277C35.1782 19.0481 35.609 19.3837 36.1182 19.6332C36.6261 19.8828 37.2077 20.0039 37.8616 20.0039C40.6127 20.0039 42.6304 19.5569 44.5602 18.4811C44.5732 18.5308 44.5839 18.5804 44.597 18.6289C44.6753 18.8966 44.8035 19.1365 44.9827 19.3473C45.1667 19.5533 45.4017 19.7132 45.6984 19.8271C45.9891 19.947 46.3594 20.0039 46.7938 20.0039C49.0358 20.0039 51.9613 19.0759 54.1143 17.8136C54.119 18.0995 54.1582 18.3733 54.2258 18.6289C54.303 18.8966 54.4335 19.1365 54.6116 19.3473C54.7967 19.5533 55.0305 19.7132 55.3272 19.8271C55.618 19.947 55.9871 20.0039 56.4239 20.0039C58.8343 20.0039 60.49 18.9342 62.2572 17.5265C62.3165 18.3163 62.5682 18.9124 63.0037 19.3122C63.5129 19.775 64.2131 20.0039 65.0961 20.0039C65.7168 20.0039 66.3316 19.884 66.9464 19.6381C67.5553 19.3921 68.1653 19.0663 68.7753 18.6568C69.4364 18.2122 71.4695 16.7136 71.8089 15.9128C71.9323 15.622 72 15.3531 72 15.0962C72 14.8164 71.9323 14.5874 71.8089 14.4105M39.2989 10.9166C39.9042 10.3751 40.9937 9.60703 41.9183 10.1074C42.6339 11.228 40.3421 12.7096 37.3667 13.7709C37.8047 12.6236 38.601 11.5321 39.2989 10.9178M22.5929 13.7806C22.3306 14.1622 22.0339 14.5438 21.7099 14.9424C21.38 15.3361 21.0441 15.6947 20.7035 16.0267C20.1124 16.5924 19.2009 17.4538 18.1304 16.9559C16.883 16.3756 17.5868 14.6129 18.0141 13.6194C18.6787 12.0179 20.167 10.3872 22.079 10.8379C24.1168 11.3661 23.4937 12.4916 22.5941 13.7806" fill="#222222"/>
</svg>
